# xmcd
#
# Track frame offsets: 
#        150
#        18659
#        42494
#        75971
#        101688
#        131182
#        150246
#        165863
#        183953
#        203959
#        225063
#        249998
#        272177
#
# Disc length: 3851 seconds
#
# Revision: 7
# Processed by: cddbd v1.5.2PL0 Copyright (c) Steve Scherf et al.
# Submitted via: ExactAudioCopy v0.99pb5
#
DISCID=960f090d
DTITLE=Köstritzer Jazzband - Köstritzer Jazzband und Friends
DYEAR=2005
DGENRE=Jazz
TTITLE0=Forever And A Day
TTITLE1=Waiting In Vain
TTITLE2=Papa Was A Rollin' Stone
TTITLE3=Kiss The Rain
TTITLE4=You've Got A Friend
TTITLE5=A Natural Woman
TTITLE6=Goodfellas
TTITLE7=You Must Believe In Spring
TTITLE8=Fragile
TTITLE9=Sorry Seems To Be The Hardest Word
TTITLE10=Raindrops Keep Fallin' On My Head
TTITLE11=Summertime
TTITLE12=You
EXTD=YEAR: 2005
EXTT0=Mastering MES Manfred Votrubec
EXTT1=
EXTT2=
EXTT3=
EXTT4=
EXTT5=
EXTT6=
EXTT7=
EXTT8=
EXTT9=
EXTT10=
EXTT11=
EXTT12=
PLAYORDER=
